<svg width="16" height="15" viewBox="0 0 16 15" fill="none" xmlns="http://www.w3.org/2000/svg">
<mask id="path-1-inside-1_135_600" fill="white">
<path d="M11.0125 1.80158C8.61107 -0.600528 4.70327 -0.600528 2.30148 1.80158C-0.100493 4.20308 -0.100493 8.11119 2.30148 10.5129C4.62088 12.8323 8.34467 12.9112 10.7603 10.7509L11.2487 11.2394C11.1271 11.5507 11.1908 11.9175 11.4422 12.1689L14.019 14.7458C14.3578 15.0847 14.9072 15.0847 15.2458 14.7458C15.5847 14.4072 15.5847 13.8579 15.2458 13.5188L12.6692 10.9424C12.4176 10.6906 12.0507 10.6269 11.7394 10.7487L11.251 10.2602C13.4117 7.84457 13.332 4.12065 11.0125 1.80158ZM3.03757 9.77693C1.04173 7.78126 1.04173 4.53332 3.03757 2.53741C5.03323 0.541507 8.28096 0.541507 10.2768 2.53741C12.2726 4.53332 12.2726 7.78122 10.2768 9.77693C8.28096 11.7726 5.03323 11.7726 3.03757 9.77693Z"/>
</mask>
<path d="M11.0125 1.80158C8.61107 -0.600528 4.70327 -0.600528 2.30148 1.80158C-0.100493 4.20308 -0.100493 8.11119 2.30148 10.5129C4.62088 12.8323 8.34467 12.9112 10.7603 10.7509L11.2487 11.2394C11.1271 11.5507 11.1908 11.9175 11.4422 12.1689L14.019 14.7458C14.3578 15.0847 14.9072 15.0847 15.2458 14.7458C15.5847 14.4072 15.5847 13.8579 15.2458 13.5188L12.6692 10.9424C12.4176 10.6906 12.0507 10.6269 11.7394 10.7487L11.251 10.2602C13.4117 7.84457 13.332 4.12065 11.0125 1.80158ZM3.03757 9.77693C1.04173 7.78126 1.04173 4.53332 3.03757 2.53741C5.03323 0.541507 8.28096 0.541507 10.2768 2.53741C12.2726 4.53332 12.2726 7.78122 10.2768 9.77693C8.28096 11.7726 5.03323 11.7726 3.03757 9.77693Z" fill="#798A96"/>
<path d="M2.30148 1.80158L30.583 30.0886L30.5876 30.084L2.30148 1.80158ZM2.30148 10.5129L30.586 -17.7712L30.584 -17.7732L2.30148 10.5129ZM10.7603 10.7509L39.0505 -17.5275L12.3004 -44.2886L-15.9042 -19.0652L10.7603 10.7509ZM11.2487 11.2394L48.5064 25.795L58.0181 1.44795L39.5388 -17.039L11.2487 11.2394ZM11.4422 12.1689L-16.8441 40.4511L-16.8424 40.4529L11.4422 12.1689ZM14.019 14.7458L42.3125 -13.5292L42.3036 -13.5382L14.019 14.7458ZM15.2458 14.7458L-13.0225 -13.5545L-13.0389 -13.5381L-13.0553 -13.5217L15.2458 14.7458ZM15.2458 13.5188L43.5365 -14.7591L43.5286 -14.7669L15.2458 13.5188ZM12.6692 10.9424L-15.6259 39.2158L-15.6198 39.222L-15.6137 39.2281L12.6692 10.9424ZM11.7394 10.7487L-16.5504 39.0274L1.94663 57.5317L26.3123 47.9996L11.7394 10.7487ZM11.251 10.2602L-18.5626 -16.4072L-43.7808 11.7864L-17.0387 38.5389L11.251 10.2602ZM3.03757 2.53741L31.3223 30.8212L31.3235 30.82L3.03757 2.53741ZM10.2768 2.53741L-18.0082 30.821L-18.008 30.8212L10.2768 2.53741ZM10.2768 9.77693L-18.0066 -18.5083L-18.0067 -18.5082L10.2768 9.77693ZM39.3008 -26.4786C21.2763 -44.5083 -7.96268 -44.5052 -25.9847 -26.4808L30.5876 30.084C17.3692 43.3042 -4.05416 43.3073 -17.2758 30.0818L39.3008 -26.4786ZM-25.98 -26.4855C-44.0072 -8.46179 -44.0057 20.7764 -25.981 38.7989L30.584 -17.7732C43.8048 -4.55403 43.8062 16.868 30.583 30.0886L-25.98 -26.4855ZM-25.983 38.7969C-8.55838 56.2218 19.2894 56.7856 37.4249 40.567L-15.9042 -19.0652C-2.6001 -30.9631 17.8001 -30.5572 30.586 -17.7712L-25.983 38.7969ZM-17.5298 39.0293L-17.0414 39.5179L39.5388 -17.039L39.0505 -17.5275L-17.5298 39.0293ZM-26.009 -3.31607C-31.6643 11.1598 -28.7958 28.4978 -16.8441 40.4511L39.7285 -16.1133C51.1774 -4.66277 53.9185 11.9417 48.5064 25.795L-26.009 -3.31607ZM-16.8424 40.4529L-14.2655 43.0298L42.3036 -13.5382L39.7267 -16.1151L-16.8424 40.4529ZM-14.2745 43.0208C1.68314 58.9889 27.5793 58.9998 43.5469 43.0132L-13.0553 -13.5217C2.23513 -28.8303 27.0324 -28.8194 42.3125 -13.5292L-14.2745 43.0208ZM43.514 43.0461C59.5077 27.0705 59.4754 1.18712 43.5365 -14.7591L-13.0449 41.7966C-28.306 26.5286 -28.3382 1.74394 -13.0225 -13.5545L43.514 43.0461ZM43.5286 -14.7669L40.952 -17.3433L-15.6137 39.2281L-13.0371 41.8044L43.5286 -14.7669ZM40.9643 -17.3311C29.0089 -29.2956 11.6553 -32.1704 -2.83354 -26.5022L26.3123 47.9996C12.446 53.4242 -4.17371 50.6768 -15.6259 39.2158L40.9643 -17.3311ZM40.0292 -17.5301L39.5408 -18.0186L-17.0387 38.5389L-16.5504 39.0274L40.0292 -17.5301ZM41.0647 36.9275C57.2918 18.7858 56.7172 -9.0658 39.2939 -26.4856L-17.2689 30.0887C-30.0531 17.3071 -30.4684 -3.09666 -18.5626 -16.4072L41.0647 36.9275ZM31.3207 -18.5085C44.9483 -4.88203 44.9459 17.1972 31.3223 30.8212L-25.2472 -25.7464C-42.8624 -8.13053 -42.8648 20.4445 -25.2455 38.0624L31.3207 -18.5085ZM31.3235 30.82C17.6973 44.4479 -4.38342 44.4464 -18.0082 30.821L38.5617 -25.7462C20.9453 -43.3634 -7.6308 -43.3649 -25.2484 -25.7452L31.3235 30.82ZM-18.008 30.8212C-31.6317 17.197 -31.6337 -4.88202 -18.0066 -18.5083L38.5601 38.0621C56.1789 20.4445 56.1769 -8.13039 38.5615 -25.7464L-18.008 30.8212ZM-18.0067 -18.5082C-4.38225 -32.1318 17.6961 -32.1333 31.322 -18.5072L-25.2469 38.061C-7.62964 55.6785 20.9442 55.677 38.5602 38.062L-18.0067 -18.5082Z" fill="#798A96" mask="url(#path-1-inside-1_135_600)"/>
</svg>
